<svg width="23" height="22" viewBox="0 0 23 22" fill="none" xmlns="http://www.w3.org/2000/svg">
<path d="M20.876 11.2138C20.876 10.4224 20.8104 9.84488 20.6686 9.246H11.4474V12.8179H16.8601C16.751 13.7056 16.1617 15.0424 14.8521 15.9407L14.8338 16.0602L17.7494 18.2737L17.9514 18.2935C19.8065 16.6145 20.876 14.144 20.876 11.2138Z" fill="#4285F4"/>
<path d="M11.4468 20.625C14.0985 20.625 16.3247 19.7694 17.9507 18.2936L14.8515 15.9407C14.0222 16.5075 12.9091 16.9032 11.4468 16.9032C8.84959 16.9032 6.64525 15.2242 5.85947 12.9035L5.74429 12.9131L2.71264 15.2125L2.67299 15.3205C4.28805 18.4646 7.6055 20.625 11.4468 20.625Z" fill="#34A853"/>
<path d="M5.86004 12.9036C5.6527 12.3047 5.53271 11.663 5.53271 11C5.53271 10.3369 5.6527 9.69523 5.84913 9.09635L5.84364 8.96881L2.77399 6.63256L2.67355 6.67938C2.00791 7.98412 1.62596 9.44928 1.62596 11C1.62596 12.5507 2.00791 14.0158 2.67355 15.3205L5.86004 12.9036Z" fill="#FBBC05"/>
<path d="M11.4468 5.09664C13.2911 5.09664 14.5351 5.87733 15.2444 6.52974L18.0163 3.8775C16.3139 2.32681 14.0986 1.375 11.4468 1.375C7.60553 1.375 4.28805 3.53526 2.67299 6.6794L5.84858 9.09638C6.64528 6.77569 8.84963 5.09664 11.4468 5.09664Z" fill="#EB4335"/>
</svg>
