<svg width="149" height="32" viewBox="0 0 149 32" fill="none" xmlns="http://www.w3.org/2000/svg">
<path d="M48.3014 27.4004C54.2414 27.4004 57.9293 23.3635 57.9293 16.9072V16.8791C57.9293 10.4369 54.2273 6.39999 48.3014 6.39999C42.3896 6.39999 38.6595 10.4369 38.6595 16.8791V16.9072C38.6595 23.3635 42.3614 27.4004 48.3014 27.4004ZM48.3014 24.2497C44.6698 24.2497 42.3614 21.4224 42.3614 16.9072V16.8791C42.3614 12.364 44.6839 9.55076 48.3014 9.55076C51.933 9.55076 54.2414 12.378 54.2414 16.8791V16.9072C54.2414 21.3802 51.9752 24.2497 48.3014 24.2497Z" fill="#1A202C"/>
<path d="M64.5027 27.0488H68.3595L73.6098 12.1389H69.9501L66.5015 23.7996H66.417L62.9544 12.1389H59.2243L64.5027 27.0488Z" fill="#1A202C"/>
<path d="M81.253 27.3442C85.152 27.3442 87.3478 25.0374 87.8123 22.7446L87.8545 22.5899H84.5749L84.5467 22.6883C84.2089 23.687 83.0687 24.6154 81.3233 24.6154C79.0431 24.6154 77.6073 23.0681 77.551 20.4519H87.9953V19.3266C87.9953 14.8255 85.349 11.8294 81.084 11.8294C76.8191 11.8294 74.0743 14.924 74.0743 19.622V19.636C74.0743 24.3763 76.7768 27.3442 81.253 27.3442ZM81.1263 14.5723C82.9843 14.5723 84.3356 15.7538 84.5889 18.1169H77.5932C77.8748 15.8242 79.2683 14.5723 81.1263 14.5723Z" fill="#1A202C"/>
<path d="M90.2615 27.0488H93.7664V18.3982C93.7664 16.1899 94.9628 14.938 96.9475 14.938C97.5387 14.938 98.0736 15.0224 98.3692 15.1349V11.9701C98.1017 11.8998 97.6935 11.8294 97.2572 11.8294C95.5399 11.8294 94.3013 12.9125 93.8368 14.713H93.7664V12.1389H90.2615V27.0488Z" fill="#1A202C"/>
<path d="M100.171 31.9719H103.676V24.531H103.746C104.591 26.2752 106.294 27.3442 108.419 27.3442C112.164 27.3442 114.556 24.3903 114.556 19.6079V19.5938C114.556 14.7833 112.164 11.8294 108.377 11.8294C106.238 11.8294 104.605 12.9266 103.746 14.713H103.676V12.1389H100.171V31.9719ZM107.335 24.3903C105.168 24.3903 103.648 22.5196 103.648 19.6079V19.5938C103.648 16.6681 105.168 14.7833 107.335 14.7833C109.574 14.7833 110.981 16.6119 110.981 19.5938V19.6079C110.981 22.5477 109.574 24.3903 107.335 24.3903Z" fill="#1A202C"/>
<path d="M121.214 27.302C123.185 27.302 124.846 26.3174 125.704 24.756H125.789V27.0488H129.294V16.7947C129.294 13.7987 126.887 11.8294 123.157 11.8294C119.37 11.8294 117.076 13.8127 116.865 16.4571L116.851 16.6259H120.102L120.13 16.4993C120.356 15.4022 121.369 14.6286 123.03 14.6286C124.804 14.6286 125.789 15.5429 125.789 17.0479V18.0747L121.89 18.3138C118.272 18.5389 116.217 20.1283 116.217 22.7727V22.8009C116.217 25.4593 118.23 27.302 121.214 27.302ZM119.708 22.6602V22.6461C119.708 21.4646 120.651 20.7191 122.383 20.6066L125.789 20.3956V21.5209C125.789 23.2932 124.269 24.6294 122.256 24.6294C120.722 24.6294 119.708 23.884 119.708 22.6602Z" fill="#1A202C"/>
<path d="M134.066 32C137.176 32 138.922 30.8325 140.062 27.5552L145.425 12.1389H141.737L138.232 24.0668H138.133L134.643 12.1389H130.814L136.177 27.0629L135.966 27.6677C135.515 28.9196 134.769 29.2993 133.432 29.2993C132.939 29.2993 132.531 29.229 132.264 29.1727V31.8453C132.686 31.9156 133.39 32 134.066 32Z" fill="#1A202C"/>
<path d="M146.973 27.2738C148.113 27.2738 149 26.3736 149 25.2343C149 24.109 148.113 23.2088 146.973 23.2088C145.833 23.2088 144.932 24.109 144.932 25.2343C144.932 26.3736 145.833 27.2738 146.973 27.2738Z" fill="#1A202C"/>
<path d="M24.0279 26.24C21.7191 28.24 18.672 29.4267 15.3296 29.3333C8.38967 29.1467 2.98001 23.2133 2.98001 16.32V6.94667C2.98001 6.34667 3.70488 6.05333 4.12101 6.48L24.0279 26.24Z" fill="#194BFB"/>
<path d="M8.34937 5.73332C10.6448 3.74665 13.665 2.57332 16.9806 2.66665C23.8668 2.85332 29.2228 8.73331 29.2228 15.5733V24.8533C29.2228 25.4533 28.4979 25.7467 28.0818 25.32L8.34937 5.73332Z" fill="#194BFB"/>
</svg>
