<svg width="149" height="32" viewBox="0 0 149 32" fill="none" xmlns="http://www.w3.org/2000/svg">
<path d="M48.3016 27.4005C54.2416 27.4005 57.9295 23.3635 57.9295 16.9073V16.8791C57.9295 10.4369 54.2276 6.40002 48.3016 6.40002C42.3898 6.40002 38.6597 10.4369 38.6597 16.8791V16.9073C38.6597 23.3635 42.3616 27.4005 48.3016 27.4005ZM48.3016 24.2497C44.6701 24.2497 42.3616 21.4224 42.3616 16.9073V16.8791C42.3616 12.364 44.6841 9.55079 48.3016 9.55079C51.9332 9.55079 54.2416 12.378 54.2416 16.8791V16.9073C54.2416 21.3802 51.9754 24.2497 48.3016 24.2497Z" fill="white"/>
<path d="M64.5029 27.0488H68.3597L73.61 12.1389H69.9503L66.5017 23.7996H66.4172L62.9546 12.1389H59.2245L64.5029 27.0488Z" fill="white"/>
<path d="M81.2532 27.3442C85.1522 27.3442 87.348 25.0374 87.8125 22.7446L87.8547 22.5899H84.5751L84.5469 22.6884C84.2091 23.6871 83.069 24.6154 81.3236 24.6154C79.0433 24.6154 77.6075 23.0682 77.5512 20.4519H87.9955V19.3266C87.9955 14.8255 85.3492 11.8295 81.0843 11.8295C76.8193 11.8295 74.0745 14.924 74.0745 19.622V19.6361C74.0745 24.3763 76.7771 27.3442 81.2532 27.3442ZM81.1265 14.5723C82.9845 14.5723 84.3358 15.7539 84.5891 18.1169H77.5935C77.875 15.8242 79.2685 14.5723 81.1265 14.5723Z" fill="white"/>
<path d="M90.2617 27.0488H93.7666V18.3983C93.7666 16.1899 94.963 14.938 96.9477 14.938C97.5389 14.938 98.0738 15.0224 98.3694 15.135V11.9701C98.102 11.8998 97.6938 11.8295 97.2574 11.8295C95.5402 11.8295 94.3015 12.9126 93.837 14.713H93.7666V12.1389H90.2617V27.0488Z" fill="white"/>
<path d="M100.171 31.9719H103.676V24.531H103.746C104.591 26.2752 106.294 27.3442 108.42 27.3442C112.164 27.3442 114.557 24.3904 114.557 19.6079V19.5939C114.557 14.7833 112.164 11.8295 108.377 11.8295C106.238 11.8295 104.605 12.9266 103.746 14.713H103.676V12.1389H100.171V31.9719ZM107.336 24.3904C105.168 24.3904 103.648 22.5196 103.648 19.6079V19.5939C103.648 16.6682 105.168 14.7833 107.336 14.7833C109.574 14.7833 110.981 16.6119 110.981 19.5939V19.6079C110.981 22.5477 109.574 24.3904 107.336 24.3904Z" fill="white"/>
<path d="M121.214 27.302C123.185 27.302 124.846 26.3174 125.705 24.7561H125.789V27.0488H129.294V16.7948C129.294 13.7987 126.887 11.8295 123.157 11.8295C119.371 11.8295 117.076 13.8128 116.865 16.4572L116.851 16.626H120.103L120.131 16.4994C120.356 15.4022 121.369 14.6286 123.03 14.6286C124.804 14.6286 125.789 15.5429 125.789 17.0479V18.0748L121.89 18.3139C118.273 18.5389 116.218 20.1284 116.218 22.7728V22.8009C116.218 25.4594 118.23 27.302 121.214 27.302ZM119.708 22.6602V22.6462C119.708 21.4646 120.651 20.7191 122.383 20.6066L125.789 20.3956V21.5209C125.789 23.2932 124.269 24.6295 122.256 24.6295C120.722 24.6295 119.708 23.884 119.708 22.6602Z" fill="white"/>
<path d="M134.066 32C137.177 32 138.922 30.8326 140.062 27.5552L145.425 12.1389H141.737L138.232 24.0668H138.134L134.643 12.1389H130.814L136.177 27.0629L135.966 27.6677C135.516 28.9196 134.77 29.2994 133.432 29.2994C132.94 29.2994 132.531 29.229 132.264 29.1728V31.8453C132.686 31.9156 133.39 32 134.066 32Z" fill="white"/>
<path d="M146.973 27.2739C148.113 27.2739 149 26.3737 149 25.2343C149 24.109 148.113 23.2088 146.973 23.2088C145.833 23.2088 144.932 24.109 144.932 25.2343C144.932 26.3737 145.833 27.2739 146.973 27.2739Z" fill="white"/>
<path d="M24.0279 26.24C21.7191 28.24 18.672 29.4267 15.3295 29.3333C8.38964 29.1467 2.97998 23.2133 2.97998 16.32V6.94667C2.97998 6.34667 3.70485 6.05333 4.12098 6.48L24.0279 26.24Z" fill="#194BFB"/>
<path d="M8.34961 5.73335C10.645 3.74668 13.6653 2.57335 16.9809 2.66668C23.8671 2.85335 29.223 8.73334 29.223 15.5733V24.8533C29.223 25.4533 28.4982 25.7467 28.0821 25.32L8.34961 5.73335Z" fill="#194BFB"/>
</svg>
